<?xml version="1.0" encoding="utf-8"?>
<!-- Generator: Adobe Illustrator 25.3.1, SVG Export Plug-In . SVG Version: 6.00 Build 0)  -->
<svg version="1.1" id="图层_1" xmlns="http://www.w3.org/2000/svg" xmlns:xlink="http://www.w3.org/1999/xlink" x="0px" y="0px"
	 viewBox="0 0 32 32" style="enable-background:new 0 0 32 32;" xml:space="preserve">
<style type="text/css">
	.st0{fill:#FFFFFF;}
	.st1{fill:url(#SVGID_1_);}
	.st2{fill:#3B28CC;}
</style>
<path class="st0" d="M25.3,32H6.7C3,32,0,29,0,25.3V6.7C0,3,3,0,6.7,0h18.6C29,0,32,3,32,6.7v18.6C32,29,29,32,25.3,32z"/>
<linearGradient id="SVGID_1_" gradientUnits="userSpaceOnUse" x1="22.873" y1="10.9551" x2="15.5247" y2="21.6169">
	<stop  offset="0" style="stop-color:#ADD7F6"/>
	<stop  offset="0.2512" style="stop-color:#AAD5F6"/>
	<stop  offset="0.4195" style="stop-color:#A1CDF7"/>
	<stop  offset="0.5636" style="stop-color:#92C1F8"/>
	<stop  offset="0.694" style="stop-color:#7DAFF9"/>
	<stop  offset="0.8152" style="stop-color:#6198FB"/>
	<stop  offset="0.9279" style="stop-color:#407CFD"/>
	<stop  offset="1" style="stop-color:#2667FF"/>
</linearGradient>
<path class="st1" d="M25.47,8.63h-4.94c-0.17,0-0.31,0.11-0.35,0.27c-0.39,1.57-2.58,9.5-7.29,12.79c0,0,5.84,8.47,12.93-12.59
	C25.9,8.87,25.72,8.63,25.47,8.63z"/>
<path class="st2" d="M6.54,8.61h4.93c0.17,0,0.32,0.11,0.36,0.28c0.43,1.59,2.75,9.54,7.46,12.84c0,0-6.69,8.44-13.12-12.63
	C6.11,8.85,6.29,8.61,6.54,8.61z"/>
</svg>
