<svg width="200" height="200"
     viewBox="0 0 1024 1024"
     xmlns="http://www.w3.org/2000/svg">
    <path d="M512 0a512 512 0 1 1 0 1024A512 512 0 0 1 512 0z m109.248 331.136c-42.88-4.608-83.648 26.56-105.664 26.56-21.44 0-55.296-25.664-90.56-25.088-46.72 0.832-89.984 28.8-113.92 72.576-48.64 87.616-12.352 218.688 34.688 289.6 23.104 34.88 50.88 74.624 86.976 73.152 34.944-1.152 48.128-23.616 90.24-23.616 42.112 0 53.952 23.68 90.816 23.04 37.44-0.576 61.056-35.712 84.224-70.848 26.368-40.32 37.12-79.808 37.952-82.112a125.504 125.504 0 0 1-73.728-116.416c-0.576-72.32 56.96-108.032 59.392-109.76-32.192-49.28-82.56-56.192-100.416-57.088zM621.504 192c-27.52 1.152-61.376 19.328-81.152 43.776-17.6 21.312-33.28 55.936-28.928 89.344 30.592 1.728 62.208-17.024 81.472-40.64 19.264-24.768 32.192-58.752 28.608-92.48z"
          fill="#3370FF"/>
</svg>
