<svg id="图层_1" data-name="图层 1" xmlns="http://www.w3.org/2000/svg" viewBox="0 0 32 32">
    <defs>
        <style>.cls-1{fill:url(#未命名的渐变_4);}.cls-2{fill:url(#未命名的渐变_6);}</style>
        <linearGradient id="未命名的渐变_4" x1="0.32" y1="15.03" x2="20.16" y2="15.03" gradientUnits="userSpaceOnUse">
            <stop offset="0" stop-color="#23b6b6"/>
            <stop offset="1" stop-color="#189c98"/>
        </linearGradient>
        <linearGradient id="未命名的渐变_6" x1="11.84" y1="16.97" x2="31.68" y2="16.97" gradientUnits="userSpaceOnUse">
            <stop offset="0" stop-color="#08589b"/>
            <stop offset="1" stop-color="#2167b2"/>
        </linearGradient>
    </defs>
    <path class="cls-1"
          d="M20,17.37a1.56,1.56,0,0,0-2.13-.65l-7.56,4.07A4.65,4.65,0,0,1,4,18.91H4a4.65,4.65,0,0,1,1.88-6.3L13.6,8.44a1.56,1.56,0,0,0,.64-2.1h0a1.56,1.56,0,0,0-2.13-.65l-8,4.3a7.24,7.24,0,0,0-2.94,9.82l.51.94a7.24,7.24,0,0,0,9.82,2.94l7.81-4.22a1.56,1.56,0,0,0,.65-2.1Z"/>
    <path class="cls-2"
          d="M12,14.63a1.56,1.56,0,0,0,2.13.65l7.56-4.07A4.65,4.65,0,0,1,28,13.09h0a4.65,4.65,0,0,1-1.88,6.3L18.4,23.56a1.56,1.56,0,0,0-.64,2.1h0a1.56,1.56,0,0,0,2.13.65l8-4.3a7.24,7.24,0,0,0,2.94-9.82l-.51-.94a7.24,7.24,0,0,0-9.82-2.94l-7.81,4.22a1.56,1.56,0,0,0-.65,2.1Z"/>
</svg>
